<svg width="44" height="51" viewBox="0 0 44 51" fill="none" xmlns="http://www.w3.org/2000/svg">
<path d="M20.2767 48.0305C20.2767 46.6676 19.0454 45.5627 17.5267 45.5627H6.00415V5.43725H17.5267C19.0454 5.43725 20.2767 4.33241 20.2767 2.96951C20.2767 1.60662 19.0454 0.50177 17.5267 0.50177H0.50415V50.4982H17.5267C19.0454 50.4982 20.2767 49.3934 20.2767 48.0305Z" fill="white"/>
<path d="M42.8908 27.03C42.9458 26.9642 43.0008 26.9066 43.0558 26.8408C43.1059 26.769 43.1518 26.6948 43.1933 26.6187C43.1933 26.5529 43.2666 26.4953 43.3033 26.4213C43.3396 26.3324 43.3702 26.2418 43.395 26.1498C43.395 26.0922 43.395 26.0264 43.45 25.9689C43.4843 25.8172 43.5028 25.663 43.505 25.5082C43.5028 25.3535 43.4843 25.1992 43.45 25.0476C43.45 24.9818 43.45 24.9242 43.395 24.8666C43.3702 24.7746 43.3396 24.684 43.3033 24.5951C43.3033 24.5293 43.23 24.4635 43.1933 24.3977C43.1518 24.3216 43.1059 24.2474 43.0558 24.1756C43.01 24.1098 42.9458 24.0522 42.8908 23.9864C42.8358 23.9206 42.8083 23.8795 42.7625 23.8384L31.075 12.5032C30.4069 11.8567 29.4052 11.5791 28.4472 11.775C27.4892 11.9709 26.7204 12.6106 26.4305 13.4531C26.1406 14.2955 26.3735 15.2128 27.0416 15.8593L34.4483 23.0322H15.7483C14.7658 23.0322 13.858 23.5026 13.3667 24.2661C12.8755 25.0296 12.8755 25.9703 13.3667 26.7339C13.858 27.4974 14.7658 27.9677 15.7483 27.9677H34.4483L27.0416 35.1406C26.0089 36.1401 26.0745 37.7016 27.1883 38.6284C28.3021 39.5551 30.0422 39.4962 31.075 38.4968L42.7625 27.1451C42.8175 27.1451 42.8541 27.0793 42.8908 27.03Z" fill="white"/>
</svg>
